<svg class="rich-terminal" viewBox="0 0 1714 904.0" xmlns="http://www.w3.org/2000/svg">
    <!-- Generated with Rich https://www.textualize.io -->
    <style>

    @font-face {
        font-family: "Fira Code";
        src: local("FiraCode-Regular"),
                url("https://cdnjs.cloudflare.com/ajax/libs/firacode/6.2.0/woff2/FiraCode-Regular.woff2") format("woff2"),
                url("https://cdnjs.cloudflare.com/ajax/libs/firacode/6.2.0/woff/FiraCode-Regular.woff") format("woff");
        font-style: normal;
        font-weight: 400;
    }
    @font-face {
        font-family: "Fira Code";
        src: local("FiraCode-Bold"),
                url("https://cdnjs.cloudflare.com/ajax/libs/firacode/6.2.0/woff2/FiraCode-Bold.woff2") format("woff2"),
                url("https://cdnjs.cloudflare.com/ajax/libs/firacode/6.2.0/woff/FiraCode-Bold.woff") format("woff");
        font-style: bold;
        font-weight: 700;
    }

    .terminal-2677437477-matrix {
        font-family: Fira Code, monospace;
        font-size: 20px;
        line-height: 24.4px;
        font-variant-east-asian: full-width;
    }

    .terminal-2677437477-title {
        font-size: 18px;
        font-weight: bold;
        font-family: arial;
    }

    .terminal-2677437477-r1 { fill: #c5c8c6 }
.terminal-2677437477-r2 { fill: #e3e3e3 }
.terminal-2677437477-r3 { fill: #e1e1e1 }
.terminal-2677437477-r4 { fill: #1f1f1f }
.terminal-2677437477-r5 { fill: #e2e2e2 }
.terminal-2677437477-r6 { fill: #14191f }
.terminal-2677437477-r7 { fill: #004578 }
.terminal-2677437477-r8 { fill: #262626 }
.terminal-2677437477-r9 { fill: #e2e2e2;font-weight: bold;text-decoration: underline; }
.terminal-2677437477-r10 { fill: #e2e2e2;font-weight: bold }
.terminal-2677437477-r11 { fill: #7ae998 }
.terminal-2677437477-r12 { fill: #0a180e;font-weight: bold }
.terminal-2677437477-r13 { fill: #008139 }
.terminal-2677437477-r14 { fill: #dde8f3;font-weight: bold }
.terminal-2677437477-r15 { fill: #ddedf9 }
    </style>

    <defs>
    <clipPath id="terminal-2677437477-clip-terminal">
      <rect x="0" y="0" width="1694.8" height="853.0" />
    </clipPath>
    <clipPath id="terminal-2677437477-line-0">
    <rect x="0" y="1.5" width="1695.8" height="24.65"/>
            </clipPath>
<clipPath id="terminal-2677437477-line-1">
    <rect x="0" y="25.9" width="1695.8" height="24.65"/>
            </clipPath>
<clipPath id="terminal-2677437477-line-2">
    <rect x="0" y="50.3" width="1695.8" height="24.65"/>
            </clipPath>
<clipPath id="terminal-2677437477-line-3">
    <rect x="0" y="74.7" width="1695.8" height="24.65"/>
            </clipPath>
<clipPath id="terminal-2677437477-line-4">
    <rect x="0" y="99.1" width="1695.8" height="24.65"/>
            </clipPath>
<clipPath id="terminal-2677437477-line-5">
    <rect x="0" y="123.5" width="1695.8" height="24.65"/>
            </clipPath>
<clipPath id="terminal-2677437477-line-6">
    <rect x="0" y="147.9" width="1695.8" height="24.65"/>
            </clipPath>
<clipPath id="terminal-2677437477-line-7">
    <rect x="0" y="172.3" width="1695.8" height="24.65"/>
            </clipPath>
<clipPath id="terminal-2677437477-line-8">
    <rect x="0" y="196.7" width="1695.8" height="24.65"/>
            </clipPath>
<clipPath id="terminal-2677437477-line-9">
    <rect x="0" y="221.1" width="1695.8" height="24.65"/>
            </clipPath>
<clipPath id="terminal-2677437477-line-10">
    <rect x="0" y="245.5" width="1695.8" height="24.65"/>
            </clipPath>
<clipPath id="terminal-2677437477-line-11">
    <rect x="0" y="269.9" width="1695.8" height="24.65"/>
            </clipPath>
<clipPath id="terminal-2677437477-line-12">
    <rect x="0" y="294.3" width="1695.8" height="24.65"/>
            </clipPath>
<clipPath id="terminal-2677437477-line-13">
    <rect x="0" y="318.7" width="1695.8" height="24.65"/>
            </clipPath>
<clipPath id="terminal-2677437477-line-14">
    <rect x="0" y="343.1" width="1695.8" height="24.65"/>
            </clipPath>
<clipPath id="terminal-2677437477-line-15">
    <rect x="0" y="367.5" width="1695.8" height="24.65"/>
            </clipPath>
<clipPath id="terminal-2677437477-line-16">
    <rect x="0" y="391.9" width="1695.8" height="24.65"/>
            </clipPath>
<clipPath id="terminal-2677437477-line-17">
    <rect x="0" y="416.3" width="1695.8" height="24.65"/>
            </clipPath>
<clipPath id="terminal-2677437477-line-18">
    <rect x="0" y="440.7" width="1695.8" height="24.65"/>
            </clipPath>
<clipPath id="terminal-2677437477-line-19">
    <rect x="0" y="465.1" width="1695.8" height="24.65"/>
            </clipPath>
<clipPath id="terminal-2677437477-line-20">
    <rect x="0" y="489.5" width="1695.8" height="24.65"/>
            </clipPath>
<clipPath id="terminal-2677437477-line-21">
    <rect x="0" y="513.9" width="1695.8" height="24.65"/>
            </clipPath>
<clipPath id="terminal-2677437477-line-22">
    <rect x="0" y="538.3" width="1695.8" height="24.65"/>
            </clipPath>
<clipPath id="terminal-2677437477-line-23">
    <rect x="0" y="562.7" width="1695.8" height="24.65"/>
            </clipPath>
<clipPath id="terminal-2677437477-line-24">
    <rect x="0" y="587.1" width="1695.8" height="24.65"/>
            </clipPath>
<clipPath id="terminal-2677437477-line-25">
    <rect x="0" y="611.5" width="1695.8" height="24.65"/>
            </clipPath>
<clipPath id="terminal-2677437477-line-26">
    <rect x="0" y="635.9" width="1695.8" height="24.65"/>
            </clipPath>
<clipPath id="terminal-2677437477-line-27">
    <rect x="0" y="660.3" width="1695.8" height="24.65"/>
            </clipPath>
<clipPath id="terminal-2677437477-line-28">
    <rect x="0" y="684.7" width="1695.8" height="24.65"/>
            </clipPath>
<clipPath id="terminal-2677437477-line-29">
    <rect x="0" y="709.1" width="1695.8" height="24.65"/>
            </clipPath>
<clipPath id="terminal-2677437477-line-30">
    <rect x="0" y="733.5" width="1695.8" height="24.65"/>
            </clipPath>
<clipPath id="terminal-2677437477-line-31">
    <rect x="0" y="757.9" width="1695.8" height="24.65"/>
            </clipPath>
<clipPath id="terminal-2677437477-line-32">
    <rect x="0" y="782.3" width="1695.8" height="24.65"/>
            </clipPath>
<clipPath id="terminal-2677437477-line-33">
    <rect x="0" y="806.7" width="1695.8" height="24.65"/>
            </clipPath>
    </defs>

    <rect fill="#292929" stroke="rgba(255,255,255,0.35)" stroke-width="1" x="1" y="1" width="1712" height="902" rx="8"/><text class="terminal-2677437477-title" fill="#c5c8c6" text-anchor="middle" x="856" y="27">Textual&#160;Demo</text>
            <g transform="translate(26,22)">
            <circle cx="0" cy="0" r="7" fill="#ff5f57"/>
            <circle cx="22" cy="0" r="7" fill="#febc2e"/>
            <circle cx="44" cy="0" r="7" fill="#28c840"/>
            </g>
        
    <g transform="translate(9, 41)" clip-path="url(#terminal-2677437477-clip-terminal)">
    <rect fill="#282828" x="0" y="1.5" width="12.2" height="24.65" shape-rendering="crispEdges"/><rect fill="#282828" x="12.2" y="1.5" width="73.2" height="24.65" shape-rendering="crispEdges"/><rect fill="#282828" x="85.4" y="1.5" width="12.2" height="24.65" shape-rendering="crispEdges"/><rect fill="#282828" x="97.6" y="1.5" width="1476.2" height="24.65" shape-rendering="crispEdges"/><rect fill="#282828" x="1573.8" y="1.5" width="12.2" height="24.65" shape-rendering="crispEdges"/><rect fill="#282828" x="1586" y="1.5" width="0" height="24.65" shape-rendering="crispEdges"/><rect fill="#282828" x="1586" y="1.5" width="97.6" height="24.65" shape-rendering="crispEdges"/><rect fill="#282828" x="1683.6" y="1.5" width="12.2" height="24.65" shape-rendering="crispEdges"/><rect fill="#282828" x="0" y="25.9" width="12.2" height="24.65" shape-rendering="crispEdges"/><rect fill="#282828" x="12.2" y="25.9" width="12.2" height="24.65" shape-rendering="crispEdges"/><rect fill="#282828" x="24.4" y="25.9" width="61" height="24.65" shape-rendering="crispEdges"/><rect fill="#282828" x="85.4" y="25.9" width="12.2" height="24.65" shape-rendering="crispEdges"/><rect fill="#282828" x="97.6" y="25.9" width="658.8" height="24.65" shape-rendering="crispEdges"/><rect fill="#282828" x="756.4" y="25.9" width="146.4" height="24.65" shape-rendering="crispEdges"/><rect fill="#282828" x="902.8" y="25.9" width="671" height="24.65" shape-rendering="crispEdges"/><rect fill="#282828" x="1573.8" y="25.9" width="12.2" height="24.65" shape-rendering="crispEdges"/><rect fill="#282828" x="1586" y="25.9" width="97.6" height="24.65" shape-rendering="crispEdges"/><rect fill="#282828" x="1683.6" y="25.9" width="12.2" height="24.65" shape-rendering="crispEdges"/><rect fill="#282828" x="0" y="50.3" width="12.2" height="24.65" shape-rendering="crispEdges"/><rect fill="#282828" x="12.2" y="50.3" width="73.2" height="24.65" shape-rendering="crispEdges"/><rect fill="#282828" x="85.4" y="50.3" width="12.2" height="24.65" shape-rendering="crispEdges"/><rect fill="#282828" x="97.6" y="50.3" width="1476.2" height="24.65" shape-rendering="crispEdges"/><rect fill="#282828" x="1573.8" y="50.3" width="12.2" height="24.65" shape-rendering="crispEdges"/><rect fill="#282828" x="1586" y="50.3" width="97.6" height="24.65" shape-rendering="crispEdges"/><rect fill="#282828" x="1683.6" y="50.3" width="12.2" height="24.65" shape-rendering="crispEdges"/><rect fill="#1e1e1e" x="0" y="74.7" width="0" height="24.65" shape-rendering="crispEdges"/><rect fill="#1e1e1e" x="0" y="74.7" width="366" height="24.65" shape-rendering="crispEdges"/><rect fill="#1e1e1e" x="366" y="74.7" width="0" height="24.65" shape-rendering="crispEdges"/><rect fill="#1e1e1e" x="366" y="74.7" width="1305.4" height="24.65" shape-rendering="crispEdges"/><rect fill="#23568b" x="1671.4" y="74.7" width="24.4" height="24.65" shape-rendering="crispEdges"/><rect fill="#1e1e1e" x="0" y="99.1" width="12.2" height="24.65" shape-rendering="crispEdges"/><rect fill="#262626" x="12.2" y="99.1" width="353.8" height="24.65" shape-rendering="crispEdges"/><rect fill="#1e1e1e" x="366" y="99.1" width="1305.4" height="24.65" shape-rendering="crispEdges"/><rect fill="#23568b" x="1671.4" y="99.1" width="24.4" height="24.65" shape-rendering="crispEdges"/><rect fill="#1e1e1e" x="0" y="123.5" width="12.2" height="24.65" shape-rendering="crispEdges"/><rect fill="#262626" x="12.2" y="123.5" width="24.4" height="24.65" shape-rendering="crispEdges"/><rect fill="#262626" x="36.6" y="123.5" width="134.2" height="24.65" shape-rendering="crispEdges"/><rect fill="#262626" x="170.8" y="123.5" width="36.6" height="24.65" shape-rendering="crispEdges"/><rect fill="#262626" x="207.4" y="123.5" width="134.2" height="24.65" shape-rendering="crispEdges"/><rect fill="#262626" x="341.6" y="123.5" width="24.4" height="24.65" shape-rendering="crispEdges"/><rect fill="#1e1e1e" x="366" y="123.5" width="1305.4" height="24.65" shape-rendering="crispEdges"/><rect fill="#23568b" x="1671.4" y="123.5" width="24.4" height="24.65" shape-rendering="crispEdges"/><rect fill="#1e1e1e" x="0" y="147.9" width="12.2" height="24.65" shape-rendering="crispEdges"/><rect fill="#262626" x="12.2" y="147.9" width="353.8" height="24.65" shape-rendering="crispEdges"/><rect fill="#1e1e1e" x="366" y="147.9" width="1305.4" height="24.65" shape-rendering="crispEdges"/><rect fill="#23568b" x="1671.4" y="147.9" width="24.4" height="24.65" shape-rendering="crispEdges"/><rect fill="#1e1e1e" x="0" y="172.3" width="366" height="24.65" shape-rendering="crispEdges"/><rect fill="#1e1e1e" x="366" y="172.3" width="1305.4" height="24.65" shape-rendering="crispEdges"/><rect fill="#23568b" x="1671.4" y="172.3" width="24.4" height="24.65" shape-rendering="crispEdges"/><rect fill="#1e1e1e" x="0" y="196.7" width="12.2" height="24.65" shape-rendering="crispEdges"/><rect fill="#262626" x="12.2" y="196.7" width="353.8" height="24.65" shape-rendering="crispEdges"/><rect fill="#1e1e1e" x="366" y="196.7" width="1305.4" height="24.65" shape-rendering="crispEdges"/><rect fill="#23568b" x="1671.4" y="196.7" width="24.4" height="24.65" shape-rendering="crispEdges"/><rect fill="#1e1e1e" x="0" y="221.1" width="12.2" height="24.65" shape-rendering="crispEdges"/><rect fill="#262626" x="12.2" y="221.1" width="24.4" height="24.65" shape-rendering="crispEdges"/><rect fill="#262626" x="36.6" y="221.1" width="109.8" height="24.65" shape-rendering="crispEdges"/><rect fill="#262626" x="146.4" y="221.1" width="85.4" height="24.65" shape-rendering="crispEdges"/><rect fill="#262626" x="231.8" y="221.1" width="109.8" height="24.65" shape-rendering="crispEdges"/><rect fill="#262626" x="341.6" y="221.1" width="24.4" height="24.65" shape-rendering="crispEdges"/><rect fill="#1e1e1e" x="366" y="221.1" width="1305.4" height="24.65" shape-rendering="crispEdges"/><rect fill="#14191f" x="1671.4" y="221.1" width="24.4" height="24.65" shape-rendering="crispEdges"/><rect fill="#1e1e1e" x="0" y="245.5" width="12.2" height="24.65" shape-rendering="crispEdges"/><rect fill="#262626" x="12.2" y="245.5" width="353.8" height="24.65" shape-rendering="crispEdges"/><rect fill="#1e1e1e" x="366" y="245.5" width="1305.4" height="24.65" shape-rendering="crispEdges"/><rect fill="#14191f" x="1671.4" y="245.5" width="24.4" height="24.65" shape-rendering="crispEdges"/><rect fill="#1e1e1e" x="0" y="269.9" width="366" height="24.65" shape-rendering="crispEdges"/><rect fill="#1e1e1e" x="366" y="269.9" width="1305.4" height="24.65" shape-rendering="crispEdges"/><rect fill="#14191f" x="1671.4" y="269.9" width="24.4" height="24.65" shape-rendering="crispEdges"/><rect fill="#1e1e1e" x="0" y="294.3" width="12.2" height="24.65" shape-rendering="crispEdges"/><rect fill="#262626" x="12.2" y="294.3" width="353.8" height="24.65" shape-rendering="crispEdges"/><rect fill="#1e1e1e" x="366" y="294.3" width="36.6" height="24.65" shape-rendering="crispEdges"/><rect fill="#1e1e1e" x="402.6" y="294.3" width="12.2" height="24.65" shape-rendering="crispEdges"/><rect fill="#1e1e1e" x="414.8" y="294.3" width="1195.6" height="24.65" shape-rendering="crispEdges"/><rect fill="#1e1e1e" x="1610.4" y="294.3" width="12.2" height="24.65" shape-rendering="crispEdges"/><rect fill="#1e1e1e" x="1622.6" y="294.3" width="48.8" height="24.65" shape-rendering="crispEdges"/><rect fill="#14191f" x="1671.4" y="294.3" width="24.4" height="24.65" shape-rendering="crispEdges"/><rect fill="#1e1e1e" x="0" y="318.7" width="12.2" height="24.65" shape-rendering="crispEdges"/><rect fill="#262626" x="12.2" y="318.7" width="24.4" height="24.65" shape-rendering="crispEdges"/><rect fill="#262626" x="36.6" y="318.7" width="73.2" height="24.65" shape-rendering="crispEdges"/><rect fill="#262626" x="109.8" y="318.7" width="146.4" height="24.65" shape-rendering="crispEdges"/><rect fill="#262626" x="256.2" y="318.7" width="85.4" height="24.65" shape-rendering="crispEdges"/><rect fill="#262626" x="341.6" y="318.7" width="24.4" height="24.65" shape-rendering="crispEdges"/><rect fill="#1e1e1e" x="366" y="318.7" width="36.6" height="24.65" shape-rendering="crispEdges"/><rect fill="#262626" x="402.6" y="318.7" width="12.2" height="24.65" shape-rendering="crispEdges"/><rect fill="#262626" x="414.8" y="318.7" width="1195.6" height="24.65" shape-rendering="crispEdges"/><rect fill="#004578" x="1610.4" y="318.7" width="12.2" height="24.65" shape-rendering="crispEdges"/><rect fill="#1e1e1e" x="1622.6" y="318.7" width="48.8" height="24.65" shape-rendering="crispEdges"/><rect fill="#14191f" x="1671.4" y="318.7" width="24.4" height="24.65" shape-rendering="crispEdges"/><rect fill="#1e1e1e" x="0" y="343.1" width="12.2" height="24.65" shape-rendering="crispEdges"/><rect fill="#262626" x="12.2" y="343.1" width="353.8" height="24.65" shape-rendering="crispEdges"/><rect fill="#1e1e1e" x="366" y="343.1" width="36.6" height="24.65" shape-rendering="crispEdges"/><rect fill="#262626" x="402.6" y="343.1" width="12.2" height="24.65" shape-rendering="crispEdges"/><rect fill="#262626" x="414.8" y="343.1" width="24.4" height="24.65" shape-rendering="crispEdges"/><rect fill="#262626" x="439.2" y="343.1" width="0" height="24.65" shape-rendering="crispEdges"/><rect fill="#262626" x="439.2" y="343.1" width="1146.8" height="24.65" shape-rendering="crispEdges"/><rect fill="#262626" x="1586" y="343.1" width="24.4" height="24.65" shape-rendering="crispEdges"/><rect fill="#004578" x="1610.4" y="343.1" width="12.2" height="24.65" shape-rendering="crispEdges"/><rect fill="#1e1e1e" x="1622.6" y="343.1" width="48.8" height="24.65" shape-rendering="crispEdges"/><rect fill="#14191f" x="1671.4" y="343.1" width="24.4" height="24.65" shape-rendering="crispEdges"/><rect fill="#1e1e1e" x="0" y="367.5" width="366" height="24.65" shape-rendering="crispEdges"/><rect fill="#1e1e1e" x="366" y="367.5" width="36.6" height="24.65" shape-rendering="crispEdges"/><rect fill="#262626" x="402.6" y="367.5" width="12.2" height="24.65" shape-rendering="crispEdges"/><rect fill="#262626" x="414.8" y="367.5" width="24.4" height="24.65" shape-rendering="crispEdges"/><rect fill="#262626" x="439.2" y="367.5" width="500.2" height="24.65" shape-rendering="crispEdges"/><rect fill="#262626" x="939.4" y="367.5" width="146.4" height="24.65" shape-rendering="crispEdges"/><rect fill="#262626" x="1085.8" y="367.5" width="500.2" height="24.65" shape-rendering="crispEdges"/><rect fill="#262626" x="1586" y="367.5" width="24.4" height="24.65" shape-rendering="crispEdges"/><rect fill="#004578" x="1610.4" y="367.5" width="12.2" height="24.65" shape-rendering="crispEdges"/><rect fill="#1e1e1e" x="1622.6" y="367.5" width="48.8" height="24.65" shape-rendering="crispEdges"/><rect fill="#14191f" x="1671.4" y="367.5" width="24.4" height="24.65" shape-rendering="crispEdges"/><rect fill="#1e1e1e" x="0" y="391.9" width="12.2" height="24.65" shape-rendering="crispEdges"/><rect fill="#262626" x="12.2" y="391.9" width="353.8" height="24.65" shape-rendering="crispEdges"/><rect fill="#1e1e1e" x="366" y="391.9" width="36.6" height="24.65" shape-rendering="crispEdges"/><rect fill="#262626" x="402.6" y="391.9" width="12.2" height="24.65" shape-rendering="crispEdges"/><rect fill="#262626" x="414.8" y="391.9" width="24.4" height="24.65" shape-rendering="crispEdges"/><rect fill="#262626" x="439.2" y="391.9" width="1146.8" height="24.65" shape-rendering="crispEdges"/><rect fill="#262626" x="1586" y="391.9" width="24.4" height="24.65" shape-rendering="crispEdges"/><rect fill="#004578" x="1610.4" y="391.9" width="12.2" height="24.65" shape-rendering="crispEdges"/><rect fill="#1e1e1e" x="1622.6" y="391.9" width="48.8" height="24.65" shape-rendering="crispEdges"/><rect fill="#14191f" x="1671.4" y="391.9" width="24.4" height="24.65" shape-rendering="crispEdges"/><rect fill="#1e1e1e" x="0" y="416.3" width="12.2" height="24.65" shape-rendering="crispEdges"/><rect fill="#262626" x="12.2" y="416.3" width="24.4" height="24.65" shape-rendering="crispEdges"/><rect fill="#262626" x="36.6" y="416.3" width="134.2" height="24.65" shape-rendering="crispEdges"/><rect fill="#262626" x="170.8" y="416.3" width="36.6" height="24.65" shape-rendering="crispEdges"/><rect fill="#262626" x="207.4" y="416.3" width="134.2" height="24.65" shape-rendering="crispEdges"/><rect fill="#262626" x="341.6" y="416.3" width="24.4" height="24.65" shape-rendering="crispEdges"/><rect fill="#1e1e1e" x="366" y="416.3" width="36.6" height="24.65" shape-rendering="crispEdges"/><rect fill="#262626" x="402.6" y="416.3" width="12.2" height="24.65" shape-rendering="crispEdges"/><rect fill="#262626" x="414.8" y="416.3" width="24.4" height="24.65" shape-rendering="crispEdges"/><rect fill="#262626" x="439.2" y="416.3" width="85.4" height="24.65" shape-rendering="crispEdges"/><rect fill="#262626" x="524.6" y="416.3" width="1012.6" height="24.65" shape-rendering="crispEdges"/><rect fill="#262626" x="1537.2" y="416.3" width="48.8" height="24.65" shape-rendering="crispEdges"/><rect fill="#262626" x="1586" y="416.3" width="24.4" height="24.65" shape-rendering="crispEdges"/><rect fill="#004578" x="1610.4" y="416.3" width="12.2" height="24.65" shape-rendering="crispEdges"/><rect fill="#1e1e1e" x="1622.6" y="416.3" width="48.8" height="24.65" shape-rendering="crispEdges"/><rect fill="#14191f" x="1671.4" y="416.3" width="24.4" height="24.65" shape-rendering="crispEdges"/><rect fill="#1e1e1e" x="0" y="440.7" width="12.2" height="24.65" shape-rendering="crispEdges"/><rect fill="#262626" x="12.2" y="440.7" width="353.8" height="24.65" shape-rendering="crispEdges"/><rect fill="#1e1e1e" x="366" y="440.7" width="36.6" height="24.65" shape-rendering="crispEdges"/><rect fill="#262626" x="402.6" y="440.7" width="12.2" height="24.65" shape-rendering="crispEdges"/><rect fill="#262626" x="414.8" y="440.7" width="24.4" height="24.65" shape-rendering="crispEdges"/><rect fill="#262626" x="439.2" y="440.7" width="1146.8" height="24.65" shape-rendering="crispEdges"/><rect fill="#262626" x="1586" y="440.7" width="24.4" height="24.65" shape-rendering="crispEdges"/><rect fill="#004578" x="1610.4" y="440.7" width="12.2" height="24.65" shape-rendering="crispEdges"/><rect fill="#1e1e1e" x="1622.6" y="440.7" width="48.8" height="24.65" shape-rendering="crispEdges"/><rect fill="#14191f" x="1671.4" y="440.7" width="24.4" height="24.65" shape-rendering="crispEdges"/><rect fill="#1e1e1e" x="0" y="465.1" width="366" height="24.65" shape-rendering="crispEdges"/><rect fill="#1e1e1e" x="366" y="465.1" width="36.6" height="24.65" shape-rendering="crispEdges"/><rect fill="#262626" x="402.6" y="465.1" width="12.2" height="24.65" shape-rendering="crispEdges"/><rect fill="#262626" x="414.8" y="465.1" width="24.4" height="24.65" shape-rendering="crispEdges"/><rect fill="#4ebf71" x="439.2" y="465.1" width="1146.8" height="24.65" shape-rendering="crispEdges"/><rect fill="#262626" x="1586" y="465.1" width="24.4" height="24.65" shape-rendering="crispEdges"/><rect fill="#004578" x="1610.4" y="465.1" width="12.2" height="24.65" shape-rendering="crispEdges"/><rect fill="#1e1e1e" x="1622.6" y="465.1" width="48.8" height="24.65" shape-rendering="crispEdges"/><rect fill="#14191f" x="1671.4" y="465.1" width="24.4" height="24.65" shape-rendering="crispEdges"/><rect fill="#1e1e1e" x="0" y="489.5" width="366" height="24.65" shape-rendering="crispEdges"/><rect fill="#1e1e1e" x="366" y="489.5" width="36.6" height="24.65" shape-rendering="crispEdges"/><rect fill="#262626" x="402.6" y="489.5" width="12.2" height="24.65" shape-rendering="crispEdges"/><rect fill="#262626" x="414.8" y="489.5" width="24.4" height="24.65" shape-rendering="crispEdges"/><rect fill="#4ebf71" x="439.2" y="489.5" width="524.6" height="24.65" shape-rendering="crispEdges"/><rect fill="#4ebf71" x="963.8" y="489.5" width="12.2" height="24.65" shape-rendering="crispEdges"/><rect fill="#4ebf71" x="976" y="489.5" width="61" height="24.65" shape-rendering="crispEdges"/><rect fill="#4ebf71" x="1037" y="489.5" width="12.2" height="24.65" shape-rendering="crispEdges"/><rect fill="#4ebf71" x="1049.2" y="489.5" width="536.8" height="24.65" shape-rendering="crispEdges"/><rect fill="#262626" x="1586" y="489.5" width="24.4" height="24.65" shape-rendering="crispEdges"/><rect fill="#004578" x="1610.4" y="489.5" width="12.2" height="24.65" shape-rendering="crispEdges"/><rect fill="#1e1e1e" x="1622.6" y="489.5" width="48.8" height="24.65" shape-rendering="crispEdges"/><rect fill="#14191f" x="1671.4" y="489.5" width="24.4" height="24.65" shape-rendering="crispEdges"/><rect fill="#1e1e1e" x="0" y="513.9" width="366" height="24.65" shape-rendering="crispEdges"/><rect fill="#1e1e1e" x="366" y="513.9" width="36.6" height="24.65" shape-rendering="crispEdges"/><rect fill="#262626" x="402.6" y="513.9" width="12.2" height="24.65" shape-rendering="crispEdges"/><rect fill="#262626" x="414.8" y="513.9" width="24.4" height="24.65" shape-rendering="crispEdges"/><rect fill="#4ebf71" x="439.2" y="513.9" width="1146.8" height="24.65" shape-rendering="crispEdges"/><rect fill="#262626" x="1586" y="513.9" width="24.4" height="24.65" shape-rendering="crispEdges"/><rect fill="#004578" x="1610.4" y="513.9" width="12.2" height="24.65" shape-rendering="crispEdges"/><rect fill="#1e1e1e" x="1622.6" y="513.9" width="48.8" height="24.65" shape-rendering="crispEdges"/><rect fill="#14191f" x="1671.4" y="513.9" width="24.4" height="24.65" shape-rendering="crispEdges"/><rect fill="#1e1e1e" x="0" y="538.3" width="366" height="24.65" shape-rendering="crispEdges"/><rect fill="#1e1e1e" x="366" y="538.3" width="36.6" height="24.65" shape-rendering="crispEdges"/><rect fill="#262626" x="402.6" y="538.3" width="12.2" height="24.65" shape-rendering="crispEdges"/><rect fill="#262626" x="414.8" y="538.3" width="1195.6" height="24.65" shape-rendering="crispEdges"/><rect fill="#004578" x="1610.4" y="538.3" width="12.2" height="24.65" shape-rendering="crispEdges"/><rect fill="#1e1e1e" x="1622.6" y="538.3" width="48.8" height="24.65" shape-rendering="crispEdges"/><rect fill="#14191f" x="1671.4" y="538.3" width="24.4" height="24.65" shape-rendering="crispEdges"/><rect fill="#1e1e1e" x="0" y="562.7" width="366" height="24.65" shape-rendering="crispEdges"/><rect fill="#1e1e1e" x="366" y="562.7" width="36.6" height="24.65" shape-rendering="crispEdges"/><rect fill="#1e1e1e" x="402.6" y="562.7" width="12.2" height="24.65" shape-rendering="crispEdges"/><rect fill="#1e1e1e" x="414.8" y="562.7" width="1195.6" height="24.65" shape-rendering="crispEdges"/><rect fill="#1e1e1e" x="1610.4" y="562.7" width="12.2" height="24.65" shape-rendering="crispEdges"/><rect fill="#1e1e1e" x="1622.6" y="562.7" width="48.8" height="24.65" shape-rendering="crispEdges"/><rect fill="#14191f" x="1671.4" y="562.7" width="24.4" height="24.65" shape-rendering="crispEdges"/><rect fill="#1e1e1e" x="0" y="587.1" width="366" height="24.65" shape-rendering="crispEdges"/><rect fill="#1e1e1e" x="366" y="587.1" width="1305.4" height="24.65" shape-rendering="crispEdges"/><rect fill="#14191f" x="1671.4" y="587.1" width="24.4" height="24.65" shape-rendering="crispEdges"/><rect fill="#1e1e1e" x="0" y="611.5" width="366" height="24.65" shape-rendering="crispEdges"/><rect fill="#1e1e1e" x="366" y="611.5" width="1305.4" height="24.65" shape-rendering="crispEdges"/><rect fill="#14191f" x="1671.4" y="611.5" width="24.4" height="24.65" shape-rendering="crispEdges"/><rect fill="#1e1e1e" x="0" y="635.9" width="366" height="24.65" shape-rendering="crispEdges"/><rect fill="#1e1e1e" x="366" y="635.9" width="1305.4" height="24.65" shape-rendering="crispEdges"/><rect fill="#14191f" x="1671.4" y="635.9" width="24.4" height="24.65" shape-rendering="crispEdges"/><rect fill="#1e1e1e" x="0" y="660.3" width="366" height="24.65" shape-rendering="crispEdges"/><rect fill="#1e1e1e" x="366" y="660.3" width="1305.4" height="24.65" shape-rendering="crispEdges"/><rect fill="#14191f" x="1671.4" y="660.3" width="24.4" height="24.65" shape-rendering="crispEdges"/><rect fill="#1e1e1e" x="0" y="684.7" width="366" height="24.65" shape-rendering="crispEdges"/><rect fill="#1e1e1e" x="366" y="684.7" width="1305.4" height="24.65" shape-rendering="crispEdges"/><rect fill="#14191f" x="1671.4" y="684.7" width="24.4" height="24.65" shape-rendering="crispEdges"/><rect fill="#1e1e1e" x="0" y="709.1" width="366" height="24.65" shape-rendering="crispEdges"/><rect fill="#1e1e1e" x="366" y="709.1" width="1305.4" height="24.65" shape-rendering="crispEdges"/><rect fill="#14191f" x="1671.4" y="709.1" width="24.4" height="24.65" shape-rendering="crispEdges"/><rect fill="#1e1e1e" x="0" y="733.5" width="366" height="24.65" shape-rendering="crispEdges"/><rect fill="#1e1e1e" x="366" y="733.5" width="1305.4" height="24.65" shape-rendering="crispEdges"/><rect fill="#14191f" x="1671.4" y="733.5" width="24.4" height="24.65" shape-rendering="crispEdges"/><rect fill="#1e1e1e" x="0" y="757.9" width="366" height="24.65" shape-rendering="crispEdges"/><rect fill="#1e1e1e" x="366" y="757.9" width="1305.4" height="24.65" shape-rendering="crispEdges"/><rect fill="#14191f" x="1671.4" y="757.9" width="24.4" height="24.65" shape-rendering="crispEdges"/><rect fill="#1e1e1e" x="0" y="782.3" width="366" height="24.65" shape-rendering="crispEdges"/><rect fill="#1e1e1e" x="366" y="782.3" width="1305.4" height="24.65" shape-rendering="crispEdges"/><rect fill="#14191f" x="1671.4" y="782.3" width="24.4" height="24.65" shape-rendering="crispEdges"/><rect fill="#1e1e1e" x="0" y="806.7" width="366" height="24.65" shape-rendering="crispEdges"/><rect fill="#1e1e1e" x="366" y="806.7" width="1305.4" height="24.65" shape-rendering="crispEdges"/><rect fill="#14191f" x="1671.4" y="806.7" width="24.4" height="24.65" shape-rendering="crispEdges"/><rect fill="#0053aa" x="0" y="831.1" width="97.6" height="24.65" shape-rendering="crispEdges"/><rect fill="#0178d4" x="97.6" y="831.1" width="73.2" height="24.65" shape-rendering="crispEdges"/><rect fill="#0053aa" x="170.8" y="831.1" width="97.6" height="24.65" shape-rendering="crispEdges"/><rect fill="#0178d4" x="268.4" y="831.1" width="109.8" height="24.65" shape-rendering="crispEdges"/><rect fill="#0053aa" x="378.2" y="831.1" width="97.6" height="24.65" shape-rendering="crispEdges"/><rect fill="#0178d4" x="475.8" y="831.1" width="219.6" height="24.65" shape-rendering="crispEdges"/><rect fill="#0053aa" x="695.4" y="831.1" width="97.6" height="24.65" shape-rendering="crispEdges"/><rect fill="#0178d4" x="793" y="831.1" width="146.4" height="24.65" shape-rendering="crispEdges"/><rect fill="#0053aa" x="939.4" y="831.1" width="48.8" height="24.65" shape-rendering="crispEdges"/><rect fill="#0178d4" x="988.2" y="831.1" width="85.4" height="24.65" shape-rendering="crispEdges"/><rect fill="#0178d4" x="1073.6" y="831.1" width="622.2" height="24.65" shape-rendering="crispEdges"/>
    <g class="terminal-2677437477-matrix">
    <text class="terminal-2677437477-r1" x="1695.8" y="20" textLength="12.2" clip-path="url(#terminal-2677437477-line-0)">
</text><text class="terminal-2677437477-r2" x="12.2" y="44.4" textLength="12.2" clip-path="url(#terminal-2677437477-line-1)">⭘</text><text class="terminal-2677437477-r2" x="756.4" y="44.4" textLength="146.4" clip-path="url(#terminal-2677437477-line-1)">Textual&#160;Demo</text><text class="terminal-2677437477-r1" x="1695.8" y="44.4" textLength="12.2" clip-path="url(#terminal-2677437477-line-1)">
</text><text class="terminal-2677437477-r1" x="1695.8" y="68.8" textLength="12.2" clip-path="url(#terminal-2677437477-line-2)">
</text><text class="terminal-2677437477-r1" x="1695.8" y="93.2" textLength="12.2" clip-path="url(#terminal-2677437477-line-3)">
</text><text class="terminal-2677437477-r1" x="1695.8" y="117.6" textLength="12.2" clip-path="url(#terminal-2677437477-line-4)">
</text><text class="terminal-2677437477-r5" x="170.8" y="142" textLength="36.6" clip-path="url(#terminal-2677437477-line-5)">TOP</text><text class="terminal-2677437477-r1" x="1695.8" y="142" textLength="12.2" clip-path="url(#terminal-2677437477-line-5)">
</text><text class="terminal-2677437477-r1" x="1695.8" y="166.4" textLength="12.2" clip-path="url(#terminal-2677437477-line-6)">
</text><text class="terminal-2677437477-r1" x="1695.8" y="190.8" textLength="12.2" clip-path="url(#terminal-2677437477-line-7)">
</text><text class="terminal-2677437477-r6" x="1671.4" y="215.2" textLength="24.4" clip-path="url(#terminal-2677437477-line-8)">▄▄</text><text class="terminal-2677437477-r1" x="1695.8" y="215.2" textLength="12.2" clip-path="url(#terminal-2677437477-line-8)">
</text><text class="terminal-2677437477-r5" x="146.4" y="239.6" textLength="85.4" clip-path="url(#terminal-2677437477-line-9)">Widgets</text><text class="terminal-2677437477-r1" x="1695.8" y="239.6" textLength="12.2" clip-path="url(#terminal-2677437477-line-9)">
</text><text class="terminal-2677437477-r1" x="1695.8" y="264" textLength="12.2" clip-path="url(#terminal-2677437477-line-10)">
</text><text class="terminal-2677437477-r1" x="1695.8" y="288.4" textLength="12.2" clip-path="url(#terminal-2677437477-line-11)">
</text><text class="terminal-2677437477-r7" x="402.6" y="312.8" textLength="12.2" clip-path="url(#terminal-2677437477-line-12)">▁</text><text class="terminal-2677437477-r7" x="414.8" y="312.8" textLength="1195.6" clip-path="url(#terminal-2677437477-line-12)">▁▁▁▁▁▁▁▁▁▁▁▁▁▁▁▁▁▁▁▁▁▁▁▁▁▁▁▁▁▁▁▁▁▁▁▁▁▁▁▁▁▁▁▁▁▁▁▁▁▁▁▁▁▁▁▁▁▁▁▁▁▁▁▁▁▁▁▁▁▁▁▁▁▁▁▁▁▁▁▁▁▁▁▁▁▁▁▁▁▁▁▁▁▁▁▁▁▁</text><text class="terminal-2677437477-r7" x="1610.4" y="312.8" textLength="12.2" clip-path="url(#terminal-2677437477-line-12)">▁</text><text class="terminal-2677437477-r1" x="1695.8" y="312.8" textLength="12.2" clip-path="url(#terminal-2677437477-line-12)">
</text><text class="terminal-2677437477-r5" x="109.8" y="337.2" textLength="146.4" clip-path="url(#terminal-2677437477-line-13)">Rich&#160;content</text><text class="terminal-2677437477-r7" x="402.6" y="337.2" textLength="12.2" clip-path="url(#terminal-2677437477-line-13)">▎</text><text class="terminal-2677437477-r8" x="1610.4" y="337.2" textLength="12.2" clip-path="url(#terminal-2677437477-line-13)">▋</text><text class="terminal-2677437477-r1" x="1695.8" y="337.2" textLength="12.2" clip-path="url(#terminal-2677437477-line-13)">
</text><text class="terminal-2677437477-r7" x="402.6" y="361.6" textLength="12.2" clip-path="url(#terminal-2677437477-line-14)">▎</text><text class="terminal-2677437477-r8" x="1610.4" y="361.6" textLength="12.2" clip-path="url(#terminal-2677437477-line-14)">▋</text><text class="terminal-2677437477-r1" x="1695.8" y="361.6" textLength="12.2" clip-path="url(#terminal-2677437477-line-14)">
</text><text class="terminal-2677437477-r7" x="402.6" y="386" textLength="12.2" clip-path="url(#terminal-2677437477-line-15)">▎</text><text class="terminal-2677437477-r9" x="939.4" y="386" textLength="146.4" clip-path="url(#terminal-2677437477-line-15)">Textual&#160;Demo</text><text class="terminal-2677437477-r8" x="1610.4" y="386" textLength="12.2" clip-path="url(#terminal-2677437477-line-15)">▋</text><text class="terminal-2677437477-r1" x="1695.8" y="386" textLength="12.2" clip-path="url(#terminal-2677437477-line-15)">
</text><text class="terminal-2677437477-r7" x="402.6" y="410.4" textLength="12.2" clip-path="url(#terminal-2677437477-line-16)">▎</text><text class="terminal-2677437477-r8" x="1610.4" y="410.4" textLength="12.2" clip-path="url(#terminal-2677437477-line-16)">▋</text><text class="terminal-2677437477-r1" x="1695.8" y="410.4" textLength="12.2" clip-path="url(#terminal-2677437477-line-16)">
</text><text class="terminal-2677437477-r5" x="170.8" y="434.8" textLength="36.6" clip-path="url(#terminal-2677437477-line-17)">CSS</text><text class="terminal-2677437477-r7" x="402.6" y="434.8" textLength="12.2" clip-path="url(#terminal-2677437477-line-17)">▎</text><text class="terminal-2677437477-r10" x="439.2" y="434.8" textLength="85.4" clip-path="url(#terminal-2677437477-line-17)">Welcome</text><text class="terminal-2677437477-r5" x="524.6" y="434.8" textLength="1012.6" clip-path="url(#terminal-2677437477-line-17)">!&#160;Textual&#160;is&#160;a&#160;framework&#160;for&#160;creating&#160;sophisticated&#160;applications&#160;with&#160;the&#160;terminal.</text><text class="terminal-2677437477-r8" x="1610.4" y="434.8" textLength="12.2" clip-path="url(#terminal-2677437477-line-17)">▋</text><text class="terminal-2677437477-r1" x="1695.8" y="434.8" textLength="12.2" clip-path="url(#terminal-2677437477-line-17)">
</text><text class="terminal-2677437477-r7" x="402.6" y="459.2" textLength="12.2" clip-path="url(#terminal-2677437477-line-18)">▎</text><text class="terminal-2677437477-r8" x="1610.4" y="459.2" textLength="12.2" clip-path="url(#terminal-2677437477-line-18)">▋</text><text class="terminal-2677437477-r1" x="1695.8" y="459.2" textLength="12.2" clip-path="url(#terminal-2677437477-line-18)">
</text><text class="terminal-2677437477-r7" x="402.6" y="483.6" textLength="12.2" clip-path="url(#terminal-2677437477-line-19)">▎</text><text class="terminal-2677437477-r11" x="439.2" y="483.6" textLength="1146.8" clip-path="url(#terminal-2677437477-line-19)">▔▔▔▔▔▔▔▔▔▔▔▔▔▔▔▔▔▔▔▔▔▔▔▔▔▔▔▔▔▔▔▔▔▔▔▔▔▔▔▔▔▔▔▔▔▔▔▔▔▔▔▔▔▔▔▔▔▔▔▔▔▔▔▔▔▔▔▔▔▔▔▔▔▔▔▔▔▔▔▔▔▔▔▔▔▔▔▔▔▔▔▔▔▔</text><text class="terminal-2677437477-r8" x="1610.4" y="483.6" textLength="12.2" clip-path="url(#terminal-2677437477-line-19)">▋</text><text class="terminal-2677437477-r1" x="1695.8" y="483.6" textLength="12.2" clip-path="url(#terminal-2677437477-line-19)">
</text><text class="terminal-2677437477-r7" x="402.6" y="508" textLength="12.2" clip-path="url(#terminal-2677437477-line-20)">▎</text><text class="terminal-2677437477-r12" x="976" y="508" textLength="61" clip-path="url(#terminal-2677437477-line-20)">Start</text><text class="terminal-2677437477-r8" x="1610.4" y="508" textLength="12.2" clip-path="url(#terminal-2677437477-line-20)">▋</text><text class="terminal-2677437477-r1" x="1695.8" y="508" textLength="12.2" clip-path="url(#terminal-2677437477-line-20)">
</text><text class="terminal-2677437477-r7" x="402.6" y="532.4" textLength="12.2" clip-path="url(#terminal-2677437477-line-21)">▎</text><text class="terminal-2677437477-r13" x="439.2" y="532.4" textLength="1146.8" clip-path="url(#terminal-2677437477-line-21)">▁▁▁▁▁▁▁▁▁▁▁▁▁▁▁▁▁▁▁▁▁▁▁▁▁▁▁▁▁▁▁▁▁▁▁▁▁▁▁▁▁▁▁▁▁▁▁▁▁▁▁▁▁▁▁▁▁▁▁▁▁▁▁▁▁▁▁▁▁▁▁▁▁▁▁▁▁▁▁▁▁▁▁▁▁▁▁▁▁▁▁▁▁▁</text><text class="terminal-2677437477-r8" x="1610.4" y="532.4" textLength="12.2" clip-path="url(#terminal-2677437477-line-21)">▋</text><text class="terminal-2677437477-r1" x="1695.8" y="532.4" textLength="12.2" clip-path="url(#terminal-2677437477-line-21)">
</text><text class="terminal-2677437477-r7" x="402.6" y="556.8" textLength="12.2" clip-path="url(#terminal-2677437477-line-22)">▎</text><text class="terminal-2677437477-r8" x="1610.4" y="556.8" textLength="12.2" clip-path="url(#terminal-2677437477-line-22)">▋</text><text class="terminal-2677437477-r1" x="1695.8" y="556.8" textLength="12.2" clip-path="url(#terminal-2677437477-line-22)">
</text><text class="terminal-2677437477-r7" x="402.6" y="581.2" textLength="12.2" clip-path="url(#terminal-2677437477-line-23)">▔</text><text class="terminal-2677437477-r7" x="414.8" y="581.2" textLength="1195.6" clip-path="url(#terminal-2677437477-line-23)">▔▔▔▔▔▔▔▔▔▔▔▔▔▔▔▔▔▔▔▔▔▔▔▔▔▔▔▔▔▔▔▔▔▔▔▔▔▔▔▔▔▔▔▔▔▔▔▔▔▔▔▔▔▔▔▔▔▔▔▔▔▔▔▔▔▔▔▔▔▔▔▔▔▔▔▔▔▔▔▔▔▔▔▔▔▔▔▔▔▔▔▔▔▔▔▔▔▔</text><text class="terminal-2677437477-r7" x="1610.4" y="581.2" textLength="12.2" clip-path="url(#terminal-2677437477-line-23)">▔</text><text class="terminal-2677437477-r1" x="1695.8" y="581.2" textLength="12.2" clip-path="url(#terminal-2677437477-line-23)">
</text><text class="terminal-2677437477-r1" x="1695.8" y="605.6" textLength="12.2" clip-path="url(#terminal-2677437477-line-24)">
</text><text class="terminal-2677437477-r1" x="1695.8" y="630" textLength="12.2" clip-path="url(#terminal-2677437477-line-25)">
</text><text class="terminal-2677437477-r1" x="1695.8" y="654.4" textLength="12.2" clip-path="url(#terminal-2677437477-line-26)">
</text><text class="terminal-2677437477-r1" x="1695.8" y="678.8" textLength="12.2" clip-path="url(#terminal-2677437477-line-27)">
</text><text class="terminal-2677437477-r1" x="1695.8" y="703.2" textLength="12.2" clip-path="url(#terminal-2677437477-line-28)">
</text><text class="terminal-2677437477-r1" x="1695.8" y="727.6" textLength="12.2" clip-path="url(#terminal-2677437477-line-29)">
</text><text class="terminal-2677437477-r1" x="1695.8" y="752" textLength="12.2" clip-path="url(#terminal-2677437477-line-30)">
</text><text class="terminal-2677437477-r1" x="1695.8" y="776.4" textLength="12.2" clip-path="url(#terminal-2677437477-line-31)">
</text><text class="terminal-2677437477-r1" x="1695.8" y="800.8" textLength="12.2" clip-path="url(#terminal-2677437477-line-32)">
</text><text class="terminal-2677437477-r1" x="1695.8" y="825.2" textLength="12.2" clip-path="url(#terminal-2677437477-line-33)">
</text><text class="terminal-2677437477-r14" x="0" y="849.6" textLength="97.6" clip-path="url(#terminal-2677437477-line-34)">&#160;CTRL+C&#160;</text><text class="terminal-2677437477-r15" x="97.6" y="849.6" textLength="73.2" clip-path="url(#terminal-2677437477-line-34)">&#160;Quit&#160;</text><text class="terminal-2677437477-r14" x="170.8" y="849.6" textLength="97.6" clip-path="url(#terminal-2677437477-line-34)">&#160;CTRL+B&#160;</text><text class="terminal-2677437477-r15" x="268.4" y="849.6" textLength="109.8" clip-path="url(#terminal-2677437477-line-34)">&#160;Sidebar&#160;</text><text class="terminal-2677437477-r14" x="378.2" y="849.6" textLength="97.6" clip-path="url(#terminal-2677437477-line-34)">&#160;CTRL+T&#160;</text><text class="terminal-2677437477-r15" x="475.8" y="849.6" textLength="219.6" clip-path="url(#terminal-2677437477-line-34)">&#160;Toggle&#160;Dark&#160;mode&#160;</text><text class="terminal-2677437477-r14" x="695.4" y="849.6" textLength="97.6" clip-path="url(#terminal-2677437477-line-34)">&#160;CTRL+S&#160;</text><text class="terminal-2677437477-r15" x="793" y="849.6" textLength="146.4" clip-path="url(#terminal-2677437477-line-34)">&#160;Screenshot&#160;</text><text class="terminal-2677437477-r14" x="939.4" y="849.6" textLength="48.8" clip-path="url(#terminal-2677437477-line-34)">&#160;F1&#160;</text><text class="terminal-2677437477-r15" x="988.2" y="849.6" textLength="85.4" clip-path="url(#terminal-2677437477-line-34)">&#160;Notes&#160;</text>
    </g>
    </g>
</svg>
